<svg xmlns="http://www.w3.org/2000/svg" viewBox="0 0 200 200" role="img" aria-label="AFS">
  <defs>
    <radialGradient id="bg" cx="50%" cy="42%" r="75%">
      <stop offset="0%" stop-color="#201A2E"/>
      <stop offset="100%" stop-color="#121212"/>
    </radialGradient>
    <linearGradient id="purple" x1="0%" y1="0%" x2="0%" y2="100%">
      <stop offset="0%"  stop-color="#E5D4FF"/>
      <stop offset="30%" stop-color="#C9A6F5"/>
      <stop offset="65%" stop-color="#8F63D1"/>
      <stop offset="100%" stop-color="#B79FDE"/>
    </linearGradient>
  </defs>
  <rect width="200" height="200" fill="url(#bg)"/>
  <!-- Full AFS mark: A, F, S sharing one unified horizontal slash -->
  <g transform="translate(100,100) scale(1.05) translate(-140,-49)" stroke="url(#purple)" stroke-width="7" fill="none" stroke-linecap="butt" stroke-linejoin="miter">
    <polyline points="57,84 81,14 105,84"/>
    <line x1="123" y1="14" x2="123" y2="84"/>
    <line x1="123" y1="14" x2="159" y2="14"/>
    <path stroke-linecap="round" d="M 219,21 C 222,13 215,13 202,13 C 183,13 177,24 177,34 C 177,43 186,47 200,49 C 214,51 223,57 223,67 C 223,77 215,85 201,85 C 186,85 177,76 177,67"/>
    <line x1="57" y1="49" x2="223" y2="49"/>
  </g>
</svg>
